<svg width="112" height="24" xmlns="http://www.w3.org/2000/svg" xmlns:xlink="http://www.w3.org/1999/xlink">
 <defs>
  <linearGradient x1="0" y1="0.2798" x2="1" y2="0.7202" id="a">
   <stop stop-color="#FF4C1D" offset="0%"/>
   <stop stop-color="#9B0063" offset="100%"/>
  </linearGradient>
  <linearGradient xlink:href="#a" id="b" x1="0" y1="0.27979" x2="1" y2="0.72021"/>
 </defs>
 <g>
  <title>Layer 1</title>
  <g stroke="null" id="svg_1" fill="none">
   <path stroke="null" id="svg_2" fill="url(#b)" d="m2.23383,8.41888a0.55492,0.66121 0 0 0 -0.23383,0.53593l0,0.00823c0.00066,0.08743 0.01591,0.17603 0.04737,0.26032l2.66295,7.15591c0.11791,0.31716 0.42231,0.47243 0.69821,0.35637c1.7435,-0.73745 7.78124,-3.07045 11.68856,-1.81202c0,0 -3.91959,0.26894 -7.46391,3.56563c-0.19974,0.18622 -0.26631,0.51004 -0.16395,0.78525c0.28783,0.77115 0.86547,2.32127 1.19238,3.19748l0.45906,1.27727c0.10929,0.30306 0.45838,0.33952 0.61241,0.0651c0.82702,-1.47723 2.22146,-2.21504 3.56089,-2.85916c1.37221,-0.6594 2.80405,-1.15144 4.26471,-1.44429c1.55636,-0.31207 3.14553,-0.39558 4.71849,-0.23052c0.26198,0.02742 0.5051,-0.1631 0.58325,-0.46025l1.20297,-4.56021c0.0709,-0.26973 -0.0106,-0.56456 -0.20401,-0.73037c-1.34143,-1.15262 -6.6551,-5.02402 -15.99933,-3.46877c0,0 7.97366,-5.43292 18.09658,0.53511c0.3067,0.18112 0.67699,-0.00904 0.77935,-0.39558l1.06052,-4.02154a0.5555,0.6619 0 0 0 0.02552,-0.18778l0,-0.01923a0.55328,0.65925 0 0 0 -0.28186,-0.56416c-1.27053,-0.85264 -5.57202,-3.40759 -11.48918,-3.40759c-4.53532,-0.00039 -10.01921,1.50034 -15.81715,6.41888"/>
   <path stroke="null" id="svg_3" fill="white" width="20px" height="10px" d="m56.69424,21.87099l-1.80866,0a0.5143,0.61281 0 0 1 -0.36422,-0.18034a0.51749,0.6166 0 0 1 -0.1509,-0.43533l0,-12.50385l-4.43066,0c-0.28356,-0.00154 -0.51276,-0.27672 -0.51276,-0.61567l0,-1.93675c0,-0.34004 0.23062,-0.61567 0.51509,-0.61567l11.69865,0c0.28447,0 0.51509,0.27563 0.51509,0.61567l0,1.93675c0,0.34004 -0.23062,0.61567 -0.51511,0.61567l-4.43141,0l0,12.50385a0.51749,0.6166 0 0 1 -0.15087,0.43533c-0.09662,0.11549 -0.22763,0.18034 -0.36422,0.18034l-0.00003,0zm-8.45541,-1.18227c0.66305,-0.79245 0.93416,-1.80066 0.93416,-3.4782l0,-0.4268c0,-1.67938 -0.27111,-2.68482 -0.93416,-3.47917c-0.70256,-0.84061 -1.63361,-1.18318 -3.21066,-1.18318l-5.72656,0a0.85692,1.02104 0 0 1 -0.60715,-0.30077a0.86223,1.02737 0 0 1 -0.25111,-0.72591l0,-1.31744c0,-0.56652 0.38427,-1.02577 0.85826,-1.02577l8.19826,0c0.28447,0 0.51509,-0.27563 0.51509,-0.61567l0,-1.93675c0,-0.34004 -0.23062,-0.61567 -0.51509,-0.61567l-7.7157,0c-1.57784,0 -2.5081,0.34254 -3.21142,1.18318c-0.6631,0.79248 -0.9334,1.80069 -0.9334,3.47823l0,0.33699c0,1.68219 0.27033,2.68665 0.93338,3.47914c0.70334,0.84064 1.63361,1.18318 3.21144,1.18318l5.74747,0c0.47411,0 0.85859,0.45911 0.85902,1.0258l0,1.40628c0,0.56703 -0.3846,1.02671 -0.85902,1.02671l-8.63436,0c-0.28449,0 -0.51511,0.27563 -0.51511,0.61567l0,1.93675a0.51749,0.6166 0 0 0 0.15087,0.43533c0.09662,0.11549 0.22763,0.18034 0.36424,0.18034l8.13318,0c1.57554,0 2.5058,-0.34254 3.20836,-1.18227zm40.92467,-7.00643l0,0.11202c0,3.13847 -0.41594,4.74748 -1.59099,6.15196c-1.08443,1.2961 -2.69868,1.94417 -4.80866,1.94417l-6.2401,0c-0.28449,0 -0.51511,-0.27563 -0.51511,-0.61567l0,-15.07574c0,-0.34001 0.23062,-0.61564 0.51511,-0.61564l6.24243,0c2.10997,0 3.72732,0.65548 4.80866,1.9442c1.17505,1.40348 1.58866,3.01717 1.58866,6.1547zm-2.8381,0c0,-2.08862 -0.11076,-3.09308 -0.79627,-3.91242c-0.56079,-0.67028 -1.46475,-0.99524 -2.76528,-0.99524l-3.91633,0l0,9.92828l3.91866,0c1.30053,0 2.20525,-0.32587 2.76526,-0.99615c0.68553,-0.81843 0.79629,-1.82383 0.79629,-3.91245l-0.00233,-0.11202zm7.44226,7.57304l0,-15.05627c0,-0.34004 -0.23062,-0.61567 -0.51509,-0.61567l-1.80636,0c-0.28447,0 -0.51509,0.27563 -0.51509,0.61567l0,15.05627c0,0.34004 0.23062,0.61567 0.51509,0.61567l1.80868,0a0.5143,0.61281 0 0 0 0.36422,-0.18034a0.51749,0.6166 0 0 0 0.15087,-0.43533l-0.00233,0zm-19.42204,0.61567l-1.91324,0c-0.26843,-0.0003 -0.51218,-0.18715 -0.62433,-0.47864l-0.87993,-2.27745l-7.10068,0l-0.88145,2.27836c-0.11159,0.28926 -0.35319,0.47514 -0.61967,0.4768l-1.92255,0a0.51473,0.61332 0 0 1 -0.43635,-0.28763a0.51807,0.6173 0 0 1 -0.0284,-0.59466l5.80944,-14.4573c0.30354,-0.74297 0.93485,-1.21422 1.62663,-1.21422c0.69178,0 1.32309,0.47125 1.62665,1.21422l5.80941,14.45546a0.51807,0.6173 0 0 1 -0.02646,0.5959a0.51473,0.61332 0 0 1 -0.43676,0.28916l-0.0023,0zm-9.35862,-5.77145l4.78463,0l-2.38726,-6.50745l-2.39737,6.50745zm44.49709,5.77145l-1.91711,0c-0.26846,-0.00006 -0.51233,-0.187 -0.6243,-0.47864l-0.87842,-2.27745l-7.10063,0l-0.88072,2.27836c-0.11205,0.2888 -0.35334,0.47448 -0.61967,0.4768l-1.92253,0a0.51473,0.61332 0 0 1 -0.43638,-0.28763a0.51807,0.6173 0 0 1 -0.02838,-0.59466l5.80941,-14.4573c0.30316,-0.74357 0.93457,-1.2154 1.62665,-1.2154c0.69206,0 1.32349,0.47183 1.62663,1.21543l5.80944,14.45543a0.51807,0.6173 0 0 1 -0.02668,0.59629a0.51473,0.61332 0 0 1 -0.43731,0.28877zm-9.36089,-5.77145l4.78463,0l-2.3865,-6.50745l-2.39813,6.50745z"/>
  </g>
 </g>
</svg>